PathFileType	4	(X/Y/Z)	C:/Users/beibeiliu/ov580/test_trc/User3\out3_training_dense_left.trc
DataRate	CameraRate	NumFrames	NumMarkers	Units	OrigDataRate	OrigDataStartFrame	OrigNumFrames
120	120	18	19	mm	120	188	500
Frame#	Time	ThumbCMC			ThumbMCP			ThumbIP			ThumbTip			IndexMCP			IndexPIP			IndexTip			MiddleMCP			MiddlePIP			MiddleTip			RingMCP			RingPIP			RingTip			PinkyMCP			PinkyPIP			PinkyTip			BackHand1			BackHand2			BackHand3	
		X0	Y0	Z0	X1	Y1	Z1	X2	Y2	Z2	X3	Y3	Z3	X4	Y4	Z4	X5	Y5	Z5	X6	Y6	Z6	X7	Y7	Z7	X8	Y8	Z8	X9	Y9	Z9	X10	Y10	Z10	X11	Y11	Z11	X12	Y12	Z12	X13	Y13	Z13	X14	Y14	Z14	X15	Y15	Z15	X16	Y16	Z16	X17	Y17	Z17	X18	Y18	Z18	
187	1.55833	-212.005	29.3156	43.3	-223.131	40.6284	20.1894	-235.834	52.4296	-6.26064	-239.706	61.2423	-25.3998	-180.513	33.7771	-32.8712	-172.136	60.5275	-46.3197	-169.38	81.6121	-15.702	-161.638	39.6365	-29.1657	-150.389	68.5126	-19.1581	-163.192	58.6509	15.3851	-145.765	31.179	-21.5091	-136.333	59.2949	-16.3084	-146.069	61.8129	14.4407	-127.463	14.0129	-5.03542	-116.98	36.7401	-17.4643	-123.578	61.887	-2.28188	-165.281	-4.43368	21.1933	-167.509	-11.8919	51.525	-193.978	0.674757	30.3907	
188	1.56667	-212.987	29.2376	42.378	-225.258	41.8641	18.0002	-233.658	53.3213	-8.00348	-232.732	64.2789	-28.3915	-180.526	35.5972	-31.9558	-171.648	65.658	-40.525	-172.378	75.0553	-5.8318	-157.782	35.5552	-26.2774	-152.003	68.6783	-19.5724	-167.191	52.326	16.9816	-141.19	31.3986	-19.2228	-133.309	60.1459	-10.8815	-150.59	56.0789	18.2856	-127.557	20.2936	-7.42379	-117.458	43.7037	-11.0286	-127.463	59.875	12.1554	-159.3	-8.23752	20.6354	-168.315	-12.9318	54.2494	-193.338	0.387566	28.731	
189	1.575	-211.858	29.4016	41.8869	-219.988	41.3228	18.1099	-231.893	55.4777	-5.91859	-231.511	67.1254	-28.6994	-182.565	36.1602	-29.8335	-171.959	69.0267	-34.6384	-178.361	71.4557	-1.58576	-159.347	37.914	-26.5719	-150.308	68.6019	-16.7436	-163.577	49.8015	17.5301	-143.824	35.8728	-18.6082	-134.359	62.7837	-2.75656	-153.747	52.7043	23.8536	-125.577	25.3703	-6.03137	-123.986	50.6879	-3.7117	-138.373	55.5257	23.9236	-163.032	-7.91107	24.4338	-167.074	-13.9677	54.6667	-194.469	2.70013	31.7671	
190	1.58333	-213.95	30.1003	42.5798	-222.764	43.3232	16.8375	-230.058	55.7217	-8.32535	-228.987	66.4863	-27.9793	-181.015	37.1614	-27.0885	-169.536	67.5704	-28.8691	-180.26	64.2967	5.0902	-159.207	40.2862	-24.7708	-155.256	70.7454	-9.79369	-164.464	48.2528	20.2171	-140.009	34.8398	-11.9778	-139.192	63.5981	-0.0841674	-153.08	49.3369	29.0217	-128.519	27.7958	0.446105	-129.523	55.8293	7.47931	-146.312	48.1889	34.3651	-156.92	-5.93553	21.7359	-163.335	-11.902	52.145	-195.597	1.64592	35.429	
191	1.59167	-210.024	29.2703	41.7572	-220.953	42.8246	21.2549	-226.781	54.8804	-4.07134	-221.745	65.044	-27.6207	-181.368	39.9432	-26.383	-173.836	71.3714	-21.4892	-179.92	60.574	9.45757	-160.738	41.1443	-22.0396	-153.982	68.8123	-6.63431	-167.894	43.0434	23.7746	-146.419	40.1087	-12.1593	-141.261	62.8322	8.14561	-155.915	45.6128	32.4547	-132.857	33.3035	2.26328	-133.524	56.7958	15.8662	-150.742	39.7136	37.7499	-158.122	-7.82012	22.6607	-163.823	-12.2752	52.424	-191.265	-0.12609	36.8599	
192	1.6	-213.46	30.2227	43.8641	-220.55	42.6425	17.6391	-222.283	52.95	-8.68571	-220.921	65.6357	-31.8666	-182.963	41.347	-26.8913	-174.032	68.5261	-17.6064	-186.811	54.5191	13.1145	-162.78	38.6863	-19.265	-156.775	66.0457	-1.87165	-169.038	41.3574	26.286	-145.12	39.2845	-7.91074	-144.914	62.1304	12.7634	-163.458	42.4817	34.5938	-130.252	33.6965	5.1502	-135.605	55.2047	22.3924	-149.871	36.234	44.6653	-159.448	-7.84331	25.9287	-167.706	-11.2455	57.5305	-193.645	-0.64387	36.6411	
193	1.60833	-213.933	28.561	45.2036	-215.739	41.8855	18.0596	-219.152	51.6843	-11.9604	-219.29	62.4238	-31.9509	-184.583	41.5976	-26.0851	-180.212	68.3251	-12.753	-184.891	50.1098	16.0788	-164.823	42.8818	-18.6015	-160.41	65.2721	0.69272	-170.58	37.4793	27.4657	-146.505	40.1784	-6.57829	-149.443	60.2728	15.4119	-161.439	41.2872	37.4261	-136.693	31.7592	4.79499	-138.974	53.8177	24.8542	-152.486	30.5978	46.58	-157.892	-8.1962	22.5204	-163.157	-14.8659	56.6565	-195.529	-1.99179	35.4548	
194	1.61667	-210.781	27.4841	41.7037	-217.587	40.3842	16.0906	-217.286	50.237	-8.97986	-211.794	56.9318	-33.3872	-185.665	38.8802	-24.1709	-181.654	66.8033	-8.35851	-188.818	50.4209	16.1926	-168.213	40.0322	-17.6458	-164.569	64.2997	5.07064	-172.146	36.9141	29.0015	-149.915	35.7682	-5.45195	-149.969	58.733	15.3388	-166.584	35.4662	38.9729	-136.832	32.0665	5.14419	-144.542	51.3373	26.4339	-154.943	30.2745	45.613	-159.597	-9.81616	25.5094	-165.109	-11.9401	57.5158	-194.367	-4.28592	38.6527	
195	1.625	-212.18	27.6071	45.7229	-216.605	39.3969	18.9656	-218.539	47.6852	-11.7831	-214.226	57.4521	-31.0206	-189.996	35.8179	-23.4192	-181.874	65.7822	-7.6752	-188.759	46.0461	16.4092	-168.462	39.6884	-17.8364	-163.598	63.6183	1.81214	-176.795	33.5742	29.8916	-149.821	35.0541	-3.96495	-150.354	57.2149	17.0335	-164.534	36.6117	40.4773	-139.558	33.6025	5.68386	-144.628	51.2693	23.7182	-156.919	28.9887	44.5749	-162.129	-11.43	23.9133	-166.945	-13.2986	54.0612	-195.097	-5.6704	34.0778	
196	1.63333	-210.315	25.4455	44.961	-217.155	38.2955	20.4891	-220.353	48.6262	-8.66515	-215.723	55.755	-35.5904	-191.966	36.3365	-23.3734	-183.194	63.9087	-10.927	-188.223	43.4795	16.7654	-169.887	36.0908	-16.9408	-165.547	61.9457	5.896	-180.633	33.0965	31.41	-152.554	36.6165	-4.75686	-157.773	57.3988	19.3919	-169.194	35.2723	40.1149	-141.391	31.9569	5.61927	-145.821	50.5567	25.9107	-154.67	28.4708	46.3953	-160.902	-11.9924	24.4588	-165.536	-16.6337	56.2916	-198.876	-5.5988	38.2019	
197	1.64167	-214.702	25.0934	44.433	-217.223	38.3591	20.8473	-217.723	46.5707	-10.5825	-216.535	55.9376	-32.9209	-191.853	38.1396	-24.0184	-184.032	63.7374	-6.84622	-191.644	44.1902	16.0948	-168.315	36.2332	-16.6636	-170.246	63.2896	2.03049	-180.657	33.6808	31.9337	-154.307	35.7958	-4.93474	-157.129	56.9335	17.3309	-166.164	34.3648	40.2154	-141.548	31.9132	5.24804	-145.595	49.3439	26.2962	-155.266	31.4029	47.5138	-163.389	-11.6637	23.2883	-166.301	-14.7789	58.8496	-195.797	-6.2321	35.3903	
198	1.65	-215.428	26.2677	47.3909	-215.056	37.5179	19.3242	-218.502	47.5558	-7.48209	-214.379	54.1802	-32.9656	-191.48	34.5739	-22.004	-187.395	64.9543	-9.13252	-189.753	43.2521	16.5579	-167.465	39.4213	-17.2144	-166.126	61.8713	5.72385	-179.411	34.4693	31.4341	-151.252	33.7296	-4.31001	-152.658	55.375	19.6306	-167.5	36.5273	40.0668	-138.778	29.3403	5.57951	-143.318	49.7776	26.2928	-153.177	31.1007	47.7945	-161.387	-12.4029	21.8219	-167.064	-14.6424	56.3956	-196.911	-7.20646	38.7867	
199	1.65833	-209.832	24.4732	43.8101	-214.185	35.5253	16.1864	-217.044	45.8648	-13.6918	-212.777	53.6526	-31.5175	-187.374	36.0125	-24.3806	-183.572	63.351	-10.4105	-190.973	43.8637	16.5898	-169.631	38.589	-18.0614	-166.118	61.5943	2.03903	-174.765	36.3936	30.9835	-153.154	34.3614	-4.74869	-154.412	55.7167	17.109	-166.265	33.1753	40.2405	-137.692	35.0473	6.14226	-144.383	49.4746	25.0513	-151.091	29.4823	47.3909	-164.338	-10.7666	22.235	-165.872	-15.8659	56.6536	-199.59	-7.24847	33.9177	
200	1.66667	-211.372	24.1796	42.7042	-215.102	35.87	15.683	-218.16	46.9562	-12.6408	-210.672	52.89	-32.8576	-186.525	35.9055	-25.7573	-184.184	64.0366	-13.5677	-190.847	46.336	16.6056	-165.854	33.7558	-16.3441	-168.744	62.8497	5.78332	-173.518	34.0493	30.2401	-154.646	31.9036	-4.62806	-152.118	55.7447	16.3897	-167.505	33.6703	39.7883	-139.33	30.4211	6.42546	-144.138	48.4088	27.0982	-152.275	26.4683	49.798	-161.377	-12.1065	26.4529	-164.129	-16.3677	58.1521	-194.616	-8.84203	39.3488	
201	1.675	-212.256	24.156	41.7039	-218.54	38.8935	18.2383	-218.139	47.2201	-8.84478	-213.064	55.8518	-30.7842	-185.757	31.2532	-25.1884	-181.088	63.3757	-15.519	-187.119	52.6203	12.507	-168.213	35.5756	-18.0127	-167.142	61.1406	5.57756	-174.473	34.1529	30.5238	-148.599	35.2774	-4.42957	-151.137	54.1595	20.5738	-165.384	29.8822	40.785	-136.636	32.5778	6.85084	-143.784	48.73	31.4493	-151.866	26.7513	48.1293	-159.774	-12.5471	22.475	-166.828	-16.3367	58.6706	-195.495	-9.64696	38.7995	
202	1.68333	-211.63	24.7543	45.0189	-210.156	36.5008	14.9031	-214.356	48.3098	-10.5258	-214.153	59.8288	-31.3647	-187.672	27.4616	-27.2014	-182.348	62.791	-27.3855	-183.601	60.5975	4.552	-167.35	34.4413	-17.9273	-168.242	63.4788	3.85275	-172.048	36.2331	29.2631	-152.37	35.3442	-4.93865	-153.727	57.2086	15.8401	-165.899	35.0511	38.9347	-137.655	35.5354	8.10455	-142.926	50.0719	27.8666	-152.921	28.2836	49.1573	-160.663	-10.6562	21.981	-166.659	-17.5976	55.3454	-193.104	-7.4266	33.5323	
203	1.69167	-211.439	25.1032	40.1091	-212.293	41.4029	13.0968	-215.304	53.5437	-12.293	-210.261	61.7952	-30.4041	-183.33	23.1274	-30.3515	-180.446	54.086	-43.7159	-178.861	71.0801	-13.4554	-164.748	35.2828	-17.725	-166.615	64.4872	0.819351	-176.602	38.1363	27.3891	-147.251	35.7152	-2.88781	-154.511	56.7279	20.8216	-164.937	31.4448	40.7129	-135.787	31.8771	8.18112	-144.618	50.5355	29.4498	-154.028	30.9636	46.4725	-156.557	-10.3263	21.9138	-161.605	-17.9784	56.795	-195.495	-6.16098	32.5547	
204	1.7	-208.042	24.3662	40.4173	-211.604	42.6728	14.6497	-212.296	56.1963	-6.55605	-209.103	68.3455	-31.5518	-185.619	22.5084	-35.4562	-174.655	47.2565	-51.506	-173.017	76.7909	-36.3359	-161.045	37.2028	-18.2191	-162.486	65.7681	-1.90688	-170.386	40.0809	27.712	-149.555	37.4233	-3.68191	-153.51	57.7957	21.1767	-163.153	36.2325	40.2791	-134.425	33.5446	7.75273	-142.64	52.1759	28.6084	-151.306	31.5332	49.0482	-159.718	-9.69418	22.1553	-165.211	-15.8803	54.1921	-193.358	-7.77836	33.4022	
